<?xml version="1.0" encoding="UTF-8" standalone="no" ?>
<!DOCTYPE svg PUBLIC "-//W3C//DTD SVG 1.1//EN" "http://www.w3.org/Graphics/SVG/1.1/DTD/svg11.dtd">
<svg xmlns="http://www.w3.org/2000/svg" xmlns:xlink="http://www.w3.org/1999/xlink" version="1.1" width="760.7998413085937" height="180.44191999999998" xml:space="preserve">
<desc>Created with Fabric.js 1.6.0-rc.1</desc>
<defs></defs>
  <g transform="translate(471.35 91.75) scale(2.5 3.06)">
   <text font-family="Amerika Sans" font-size="40" font-weight="bold" style="stroke: none; stroke-width: 1; stroke-dasharray: none; stroke-linecap: butt; stroke-linejoin: miter; stroke-miterlimit: 10; fill: #ad1548; fill-rule: nonzero; opacity: 1;" ><tspan x="-112.28" y="8.98" style="stroke: none; stroke-width: 0; stroke-dasharray: none; stroke-linecap: butt; stroke-linejoin: miter; stroke-miterlimit: 4; fill: #ad1548; fill-rule: ; opacity: 1;">G</tspan><tspan x="-84.4" y="8.98" style="stroke: none; stroke-width: 0; stroke-dasharray: none; stroke-linecap: butt; stroke-linejoin: miter; stroke-miterlimit: 4; fill: #ad1548; fill-rule: ; opacity: 1;">e</tspan><tspan x="-61.68" y="8.98" style="stroke: none; stroke-width: 0; stroke-dasharray: none; stroke-linecap: butt; stroke-linejoin: miter; stroke-miterlimit: 4; fill: #ad1548; fill-rule: ; opacity: 1;">t</tspan><tspan x="-47.4" y="8.98" style="stroke: none; stroke-width: 0; stroke-dasharray: none; stroke-linecap: butt; stroke-linejoin: miter; stroke-miterlimit: 4; fill: #ad1548; fill-rule: ; opacity: 1;"> </tspan><tspan x="-33.4" y="8.98" style="stroke: none; stroke-width: 0; stroke-dasharray: none; stroke-linecap: butt; stroke-linejoin: miter; stroke-miterlimit: 4; fill: #ad1548; fill-rule: ; opacity: 1;">H</tspan><tspan x="-11.56" y="8.98" style="stroke: none; stroke-width: 0; stroke-dasharray: none; stroke-linecap: butt; stroke-linejoin: miter; stroke-miterlimit: 4; fill: #ad1548; fill-rule: ; opacity: 1;">a</tspan><tspan x="12.28" y="8.98" style="stroke: none; stroke-width: 0; stroke-dasharray: none; stroke-linecap: butt; stroke-linejoin: miter; stroke-miterlimit: 4; fill: #ad1548; fill-rule: ; opacity: 1;">n</tspan><tspan x="35.56" y="8.98" style="stroke: none; stroke-width: 0; stroke-dasharray: none; stroke-linecap: butt; stroke-linejoin: miter; stroke-miterlimit: 4; fill: #ad1548; fill-rule: ; opacity: 1;">d</tspan><tspan x="59.4" y="8.98" style="stroke: none; stroke-width: 0; stroke-dasharray: none; stroke-linecap: butt; stroke-linejoin: miter; stroke-miterlimit: 4; fill: #ad1548; fill-rule: ; opacity: 1;">l</tspan><tspan x="72.68" y="8.98" style="stroke: none; stroke-width: 0; stroke-dasharray: none; stroke-linecap: butt; stroke-linejoin: miter; stroke-miterlimit: 4; fill: #ad1548; fill-rule: ; opacity: 1;">e</tspan><tspan x="95.4" y="8.98" style="stroke: none; stroke-width: 0; stroke-dasharray: none; stroke-linecap: butt; stroke-linejoin: miter; stroke-miterlimit: 4; fill: #ad1548; fill-rule: ; opacity: 1;">s</tspan></text>
 </g>
<g style="stroke: none; stroke-width: 1; stroke-dasharray: none; stroke-linecap: butt; stroke-linejoin: miter; stroke-miterlimit: 10; fill: none; fill-rule: nonzero; opacity: 1;" transform="translate(10 10.009999999999991) scale(2.68 2.68)" >
  <rect x="6" y="3.5" rx="0" ry="0" width="33" height="54" style="stroke: none; stroke-width: 1; stroke-dasharray: none; stroke-linecap: butt; stroke-linejoin: miter; stroke-miterlimit: 10; fill: #6B5B4B; fill-rule: nonzero; opacity: 1;" transform=" matrix(1 0 0 1 0 0) "/>
  <polygon points="6,57.5 3,57.5 3,0.5 6,3.5 " style="stroke: none; stroke-width: 1; stroke-dasharray: none; stroke-linecap: butt; stroke-linejoin: miter; stroke-miterlimit: 10; fill: #998373; fill-rule: nonzero; opacity: 1;" transform="  matrix(1 0 0 1 0 0) "/>
  <polygon points="39,57.5 42,57.5 42,0.5 39,3.5 " style="stroke: none; stroke-width: 1; stroke-dasharray: none; stroke-linecap: butt; stroke-linejoin: miter; stroke-miterlimit: 10; fill: #998373; fill-rule: nonzero; opacity: 1;" transform="  matrix(1 0 0 1 0 0) "/>
  <polygon points="39,3.5 6,3.5 3,0.5 42,0.5 " style="stroke: none; stroke-width: 1; stroke-dasharray: none; stroke-linecap: butt; stroke-linejoin: miter; stroke-miterlimit: 10; fill: #846E5B; fill-rule: nonzero; opacity: 1;" transform="  matrix(1 0 0 1 0 0) "/>
  <rect x="0" y="54.5" rx="0" ry="0" width="3" height="3" style="stroke: none; stroke-width: 1; stroke-dasharray: none; stroke-linecap: butt; stroke-linejoin: miter; stroke-miterlimit: 10; fill: #C7CAC7; fill-rule: nonzero; opacity: 1;" transform=" matrix(1 0 0 1 0 0) "/>
  <rect x="10" y="7.5" rx="0" ry="0" width="10" height="20" style="stroke: none; stroke-width: 1; stroke-dasharray: none; stroke-linecap: butt; stroke-linejoin: miter; stroke-miterlimit: 10; fill: #514439; fill-rule: nonzero; opacity: 1;" transform=" matrix(1 0 0 1 0 0) "/>
  <rect x="25" y="7.5" rx="0" ry="0" width="10" height="20" style="stroke: none; stroke-width: 1; stroke-dasharray: none; stroke-linecap: butt; stroke-linejoin: miter; stroke-miterlimit: 10; fill: #514439; fill-rule: nonzero; opacity: 1;" transform=" matrix(1 0 0 1 0 0) "/>
  <rect x="10" y="33.5" rx="0" ry="0" width="10" height="20" style="stroke: none; stroke-width: 1; stroke-dasharray: none; stroke-linecap: butt; stroke-linejoin: miter; stroke-miterlimit: 10; fill: #514439; fill-rule: nonzero; opacity: 1;" transform=" matrix(1 0 0 1 0 0) "/>
  <rect x="25" y="33.5" rx="0" ry="0" width="10" height="20" style="stroke: none; stroke-width: 1; stroke-dasharray: none; stroke-linecap: butt; stroke-linejoin: miter; stroke-miterlimit: 10; fill: #514439; fill-rule: nonzero; opacity: 1;" transform=" matrix(1 0 0 1 0 0) "/>
  <path d="M 36 31.5 h -4 c -0.552 0 -1 -0.447 -1 -1 s 0.448 -1 1 -1 h 4 c 0.552 0 1 0.447 1 1 S 36.552 31.5 36 31.5 z" style="stroke: none; stroke-width: 1; stroke-dasharray: none; stroke-linecap: butt; stroke-linejoin: miter; stroke-miterlimit: 10; fill: #D1C17C; fill-rule: nonzero; opacity: 1;" transform=" matrix(1 0 0 1 0 0) " stroke-linecap="round" />
  <rect x="46" y="48.5" rx="0" ry="0" width="10" height="3" style="stroke: none; stroke-width: 1; stroke-dasharray: none; stroke-linecap: butt; stroke-linejoin: miter; stroke-miterlimit: 10; fill: #BC8850; fill-rule: nonzero; opacity: 1;" transform=" matrix(1 0 0 1 0 0) "/>
  <rect x="47" y="51.5" rx="0" ry="0" width="8" height="6" style="stroke: none; stroke-width: 1; stroke-dasharray: none; stroke-linecap: butt; stroke-linejoin: miter; stroke-miterlimit: 10; fill: #F7B563; fill-rule: nonzero; opacity: 1;" transform=" matrix(1 0 0 1 0 0) "/>
  <line x1="0" y1="4" x2="0" y2="-4" style="stroke: #23A24D; stroke-width: 2; stroke-dasharray: none; stroke-linecap: round; stroke-linejoin: miter; stroke-miterlimit: 10; fill: none; fill-rule: nonzero; opacity: 1;" transform=" matrix(1 0 0 1 0 0) "/>
  <rect x="42" y="54.5" rx="0" ry="0" width="5" height="3" style="stroke: none; stroke-width: 1; stroke-dasharray: none; stroke-linecap: butt; stroke-linejoin: miter; stroke-miterlimit: 10; fill: #C7CAC7; fill-rule: nonzero; opacity: 1;" transform=" matrix(1 0 0 1 0 0) "/>
  <rect x="55" y="54.5" rx="0" ry="0" width="3" height="3" style="stroke: none; stroke-width: 1; stroke-dasharray: none; stroke-linecap: butt; stroke-linejoin: miter; stroke-miterlimit: 10; fill: #C7CAC7; fill-rule: nonzero; opacity: 1;" transform=" matrix(1 0 0 1 0 0) "/>
  <path d="M 55.188 30.962 c 0.304 -0.768 0.521 -1.625 0.357 -2.444 c -0.071 -0.355 -0.233 -0.696 -0.456 -0.965 c -0.376 -0.455 -0.54 -1.109 -0.411 -1.711 c 0.122 -0.57 0.049 -1.21 -0.216 -1.721 c -0.483 -0.931 -1.444 -1.452 -2.399 -1.588 c -0.702 -0.1 -1.477 0.007 -1.997 0.543 l -0.618 0.534 c -0.702 0.331 -1.24 1.064 -1.394 1.897 c -0.083 0.452 -0.053 0.926 0.077 1.364 c 0.194 0.653 0.033 1.359 -0.338 1.908 c -0.836 1.236 -1.057 3.007 -0.441 4.409 c 0.078 0.178 0.179 0.354 0.297 0.513 c 0.404 0.543 0.556 1.263 0.387 1.944 c -0.039 0.156 -0.065 0.316 -0.08 0.475 c -0.066 0.727 0.082 1.455 0.232 2.167 c 0.156 0.74 0.348 1.539 0.888 2.003 c 0.732 0.629 1.792 0.385 2.63 -0.047 c 1.184 -0.611 2.28 -1.617 2.698 -2.997 c 0.244 -0.805 0.186 -1.739 -0.141 -2.495 c -0.33 -0.764 -0.33 -1.671 0.148 -2.33 C 54.73 31.982 54.985 31.476 55.188 30.962 z" style="stroke: none; stroke-width: 1; stroke-dasharray: none; stroke-linecap: butt; stroke-linejoin: miter; stroke-miterlimit: 10; fill: #61B872; fill-rule: nonzero; opacity: 1;" transform=" matrix(1 0 0 1 0 0) " stroke-linecap="round" />
</g>
</svg>